<?xml version="1.0" encoding="UTF-8"?>
<svg id="NBGLogo" xmlns="http://www.w3.org/2000/svg" version="1.1" viewBox="0 0 200 96.973">
  <defs>
    <style>
      @media (prefers-color-scheme: dark) {
        :root {
          --svg-fill: #fff;
        }
      }

      @media (prefers-color-scheme: light) {
        :root {
          --svg-fill: #000;
        }
      }
    </style>
  </defs>
  <path fill="var(--svg-fill, #000)" id="N"
    d="M66.027,46.291h-6.809v14.215l-9.152-14.215h-22.369l31.521,49.083h6.941l-.133-49.083ZM65.904,1.566h-6.687v33.491h6.778l-.092-33.491ZM21.276,1.566H0v33.491h42.837L21.276,1.566ZM0,95.374h21.531v-49.083H0v49.083Z" />
  <path fill="var(--svg-fill, #000)" id="B"
    d="M111.915,62.825c-2.075-5.881-1.92-14.844-1.869-16.534h-43.145v49.105h35.806c9.172,0,16.396-2.401,21.673-7.135.716-.642,1.382-1.31,1.999-2.009-11.14-11.436-12.167-16.916-14.464-23.427ZM93.4,78.839h-5.361v-21.819h4.943c6.475-.076,10.86.53,13.159,1.823,3.13,1.749,4.662,4.716,4.662,8.744,0,8.134-5.221,11.252-17.403,11.252ZM88.039,35.057h-21.138V1.688h29.792c10.48,0,21.026,3.199,25.398,13.2-.974,1.244-4.973,6.437-6.383,9.366-1.168,2.424-3.026,6.432-4.099,10.803h-9.962c1.394-1.631,2.088-3.872,2.088-6.72,0-6.605-3.737-9.942-11.28-9.942h-4.415v16.662Z" />
  <path fill="var(--svg-fill, #000)" id="G"
    d="M200,62.805c-1.99,9.493-6.493,18.165-14.245,24.31-3.767,2.986-8.714,5.658-13.182,7.206-7.099,2.46-14.311,3.145-21.837,2.319-19.418-2.131-35.218-18.98-38.925-37.747-.609-3.082-.92-8.764-.92-11.825v-.777h22.939s-.021,2.01,0,2.667c.303,9.591,4.091,18.856,11.98,24.58,8.35,6.058,21.347,4.808,28.251-2.876,2.213-2.463,4.497-7.409,4.105-10.745-.029-.249-.082-.438-.279-.607h-21.336v-.718c0-3.651-.002-7.748-.002-11.416v-.886h43.451v16.514ZM136.815,34.277c.568-1.189,1.2-2.332,1.914-3.471,3.763-6.006,10.308-11.019,17.547-11.483,8.878-.57,15.895,3.024,21.159,9.975.284.375,1.452,1.759,1.452,1.759,0,0,12.133-13.212,13.276-14.363l.588-.595-.538-.649c-2.835-3.293-6.206-6.346-9.914-8.626-12.321-7.575-30.341-9.097-43.701-3.287-11.923,5.185-22.062,17.086-25.594,29.582-.106.374-.288,1.235-.343,1.938h23.837s.192-.521.316-.78Z" />
  <g id="NATIONAL">
    <path fill="#c6a545" d="M0,44.869v-8.257h2.146l3.947,5.053v-5.053h2.14v8.257h-2.14l-3.947-5.053v5.053H0Z" />
    <path fill="#c6a545"
      d="M16.439,43.431h-2.962l-.568,1.439h-2.267l3.173-8.257h2.339l3.107,8.257h-2.291l-.532-1.439ZM15.859,41.799l-.883-2.635-.901,2.635h1.783Z" />
    <path fill="#c6a545" d="M24.307,38.432v6.438h-2.14v-6.438h-1.747v-1.819h5.67v1.819h-1.783Z" />
    <path fill="#c6a545" d="M30.645,36.612v8.257h-2.146v-8.257h2.146Z" />
    <path fill="#c6a545"
      d="M41.403,37.749c.792.834,1.191,1.838,1.185,3.01,0,1.324-.556,2.545-1.547,3.367-.834.695-1.88,1.04-3.137,1.04s-2.315-.423-3.167-1.275c-.852-.852-1.281-1.916-1.281-3.204,0-.623.139-1.221.411-1.801.272-.574.647-1.07,1.136-1.481.81-.695,1.819-1.04,3.022-1.04,1.378,0,2.503.459,3.379,1.384ZM38.03,38.444c-.641,0-1.191.224-1.644.671-.459.453-.689.997-.689,1.644s.224,1.191.677,1.644c.447.453.997.683,1.644.683s1.203-.23,1.656-.683c.453-.453.677-.997.677-1.638s-.224-1.191-.677-1.644-1.003-.677-1.644-.677Z" />
    <path fill="#c6a545"
      d="M45.396,44.869v-8.257h2.146l3.947,5.053v-5.053h2.14v8.257h-2.14l-3.947-5.053v5.053h-2.146Z" />
    <path fill="#c6a545"
      d="M61.835,43.431h-2.962l-.568,1.439h-2.267l3.173-8.257h2.339l3.107,8.257h-2.291l-.532-1.439ZM61.254,41.799l-.883-2.635-.901,2.635h1.783Z" />
    <path fill="#c6a545" d="M69.201,36.612v6.438h2.575v1.819h-4.721v-8.257h2.146Z" />
  </g>
  <g id="BROKERS">
    <path fill="#c6a545"
      d="M80.319,44.869v-8.257h3.186c1.517,0,2.327.749,2.327,2.152,0,.822-.26,1.33-.907,1.711.526.103.913.272,1.154.508.357.369.532.901.532,1.596s-.254,1.245-.762,1.662c-.508.417-1.203.629-2.085.629h-3.446ZM82.465,39.871h.393c.671-.006,1.003-.278,1.003-.816s-.332-.81-1.003-.81h-.393v1.626ZM82.465,43.201h.465c1.058,0,1.511-.248,1.511-.895,0-.32-.133-.556-.405-.695-.199-.103-.58-.151-1.142-.145h-.429v1.735Z" />
    <path fill="#c6a545"
      d="M91.783,44.869h-2.146v-8.257h3.331c.889,0,1.572.248,2.037.737.465.49.701,1.112.701,1.862s-.254,1.342-.756,1.783c-.26.23-.611.393-1.052.496l2.599,3.379h-2.672l-2.043-3.167v3.167ZM91.783,40.312h.393c.411,0,.719-.073.919-.224.272-.199.411-.465.411-.804-.006-.338-.139-.604-.411-.804-.199-.151-.502-.224-.919-.224h-.393v2.055Z" />
    <path fill="#c6a545"
      d="M106.528,37.749c.792.834,1.191,1.838,1.185,3.01,0,1.324-.556,2.545-1.547,3.367-.834.695-1.88,1.04-3.137,1.04s-2.315-.423-3.167-1.275c-.852-.852-1.281-1.916-1.281-3.204,0-.623.139-1.221.411-1.801.272-.574.647-1.07,1.136-1.481.81-.695,1.82-1.04,3.022-1.04,1.378,0,2.502.459,3.379,1.384ZM103.155,38.444c-.641,0-1.191.224-1.644.671-.46.453-.689.997-.689,1.644s.224,1.191.677,1.644c.447.453.998.683,1.644.683s1.203-.23,1.656-.683c.453-.453.677-.997.677-1.638s-.224-1.191-.677-1.644-1.003-.677-1.644-.677Z" />
    <path fill="#c6a545"
      d="M112.89,44.869h-2.146v-8.257h2.146v3.403l2.611-3.403h2.648l-3.27,3.911,3.579,4.346h-2.787l-2.78-3.578v3.578Z" />
    <path fill="#c6a545"
      d="M125.762,38.432h-2.551v1.372h2.412v1.819h-2.412v1.427h2.551v1.819h-4.697v-8.257h4.697v1.819Z" />
    <path fill="#c6a545"
      d="M130.933,44.869h-2.146v-8.257h3.331c.888,0,1.572.248,2.037.737.465.49.701,1.112.701,1.862s-.254,1.342-.756,1.783c-.26.23-.61.393-1.052.496l2.599,3.379h-2.672l-2.043-3.167v3.167ZM130.933,40.312h.393c.411,0,.719-.073.919-.224.272-.199.411-.465.411-.804-.006-.338-.139-.604-.411-.804-.199-.151-.502-.224-.919-.224h-.393v2.055Z" />
    <path fill="#c6a545"
      d="M140.638,38.402c-.175.139-.26.296-.26.484s.06.332.187.435c.127.103.254.181.387.236.127.054.435.151.913.29.719.211,1.233.502,1.554.858.32.357.477.84.477,1.451,0,.937-.284,1.656-.846,2.146-.61.52-1.414.78-2.406.78s-1.94-.308-2.841-.931l.913-1.735c.647.562,1.275.84,1.898.846.629,0,1.04-.332,1.04-.792,0-.23-.091-.411-.266-.544s-.592-.296-1.245-.49c-.653-.193-1.1-.393-1.348-.605-.441-.363-.659-.931-.659-1.705s.26-1.421.78-1.94c.52-.514,1.209-.774,2.073-.774s1.716.224,2.569.671l-.852,1.668c-.472-.369-.943-.556-1.414-.556-.266,0-.484.066-.653.206Z" />
  </g>
  <g id="GROUP">
    <path fill="#c6a545"
      d="M155.772,40.288h4.255c-.024,1.106-.169,1.952-.429,2.539-.677,1.499-2.037,2.339-3.802,2.339-1.305,0-2.363-.405-3.18-1.221-.816-.81-1.227-1.868-1.227-3.18s.417-2.376,1.245-3.192c.828-.816,1.91-1.221,3.234-1.221,1.747,0,2.938.737,3.717,2.327l-2.043.84c-.363-.876-.955-1.312-1.771-1.312-.61,0-1.124.248-1.529.737-.405.49-.61,1.13-.61,1.91s.248,1.433.737,1.946c.357.393.84.592,1.463.592s1.088-.2,1.402-.604c.151-.2.248-.472.296-.828h-1.759v-1.674Z" />
    <path fill="#c6a545"
      d="M164.945,44.869h-2.146v-8.257h3.331c.888,0,1.572.248,2.037.737.465.49.701,1.112.701,1.862s-.254,1.342-.756,1.783c-.26.23-.61.393-1.052.496l2.599,3.379h-2.672l-2.043-3.167v3.167ZM164.945,40.312h.393c.411,0,.719-.073.919-.224.272-.199.411-.465.411-.804-.006-.338-.139-.604-.411-.804-.199-.151-.502-.224-.919-.224h-.393v2.055Z" />
    <path fill="#c6a545"
      d="M179.431,37.749c.792.834,1.191,1.838,1.185,3.01,0,1.324-.556,2.545-1.547,3.367-.834.695-1.88,1.04-3.137,1.04s-2.315-.423-3.168-1.275c-.852-.852-1.281-1.916-1.281-3.204,0-.623.139-1.221.411-1.801.272-.574.647-1.07,1.136-1.481.81-.695,1.819-1.04,3.022-1.04,1.378,0,2.503.459,3.379,1.384ZM176.058,38.444c-.641,0-1.191.224-1.644.671-.459.453-.689.997-.689,1.644s.224,1.191.677,1.644c.447.453.997.683,1.644.683s1.203-.23,1.656-.683c.453-.453.677-.997.677-1.638s-.224-1.191-.677-1.644-1.003-.677-1.644-.677Z" />
    <path fill="#c6a545"
      d="M185.532,36.612v4.467c0,.478.012.804.036.967.024.163.091.332.199.508.248.417.647.629,1.197.629s1.021-.266,1.233-.629c.103-.181.169-.363.2-.544.03-.181.042-.49.042-.931v-4.467h2.14v4.763c0,.604-.06,1.094-.175,1.469-.121.375-.332.731-.629,1.07-.683.78-1.632,1.167-2.847,1.167-.629,0-1.203-.109-1.729-.332-.526-.218-.931-.52-1.215-.907-.393-.52-.592-1.342-.598-2.466v-4.763h2.146Z" />
    <path fill="#c6a545"
      d="M195.866,42.119v2.75h-2.146v-8.257h3.409c.489,0,.888.048,1.203.151.308.103.598.284.864.544.538.514.804,1.191.804,2.037s-.224,1.517-.677,2.019c-.453.502-1.161.749-2.122.756h-1.336ZM195.866,40.402h.701c.804,0,1.191-.32,1.191-1.028,0-.695-.393-1.04-1.179-1.04h-.713v2.067Z" />
  </g>
</svg>