<?xml version="1.0" encoding="UTF-8"?>
<svg id="Layer_1" xmlns="http://www.w3.org/2000/svg" version="1.1" viewBox="0 0 524 209">
  <!-- Generator: Adobe Illustrator 29.8.2, SVG Export Plug-In . SVG Version: 2.1.1 Build 3)  -->
  <defs>
    <style>
      .st0 {
        fill: #fff;
      }

      .st1 {
        fill: #c6a545;
      }
    </style>
  </defs>
  <path class="st0" d="M434.8,44v.2l-25.6,27.7c-.1.2-.4,0-.5,0-2.2-2.9-4.3-5.4-6.3-7.5-9.4-10.2-21.1-14.9-35.1-14.1-16.8.9-30.4,13.9-37.1,28.9-.1.3-.5.5-.8.5h-43.5c-.2,0-.4-.2-.4-.4,0-.9.2-2,.5-3.2,5.4-18.9,18-36.2,34.1-47.6,22.9-16.3,53.4-18.1,79.6-9.1,14.1,4.8,25.8,13,35.1,24.6h0Z"/>
  <path class="st0" d="M75.8,17h39.4c0,0,.2,0,.3.2l39.8,62c.1.2,0,.5-.3.5h-79.2c-.2,0-.3,0-.3-.3V17.4c0-.2,0-.3.3-.3h0Z"/>
  <rect class="st0" x="185.8" y="17.4" width="12.8" height="62.6" rx=".4" ry=".4"/>
  <path class="st0" d="M265,79.3c.6-.9,1.6-2.1,2-3,1.8-4.3,2.3-8.9,1.4-13.9-1.1-6.6-5-10.9-11.6-12.8-5.4-1.5-11.6-1.2-16.7-1.1-.2,0-.4.2-.4.4v30.4c0,0-.1.2-.2.2h-39c-.1,0-.2,0-.2-.2V17.7c0-.3.2-.5.5-.5h56.7c7.8,0,15.3,1.2,22.4,3.6,10.6,3.6,18.4,10.4,23.2,20.1.2.5.2,1.1-.1,1.5-5.2,6.8-9.7,12.8-13,20.2-2.6,5.7-4.6,11.3-6.1,16.7,0,0-.2.2-.3.2h-18.2c-.2,0-.3-.2-.2-.4l-.2.2Z"/>
  <path class="st1" d="M155.1,89.9c.2,4.6-3.6,8.5-8.4,8.7-4.8.2-8.8-3.5-9-8.1s3.6-8.5,8.4-8.7c4.8-.2,8.8,3.5,9,8.1ZM150.7,90.1c0-2.3-1.9-4.2-4.2-4.2s-4.2,1.9-4.2,4.2,1.9,4.2,4.2,4.2,4.2-1.9,4.2-4.2Z"/>
  <path class="st1" d="M276.5,89.8c.2,4.6-3.5,8.5-8.3,8.7s-8.8-3.4-9-8,3.5-8.5,8.3-8.7,8.8,3.4,9,8ZM272.1,90.1c0-2.3-1.9-4.2-4.2-4.2s-4.2,1.9-4.2,4.2,1.9,4.2,4.2,4.2,4.2-1.9,4.2-4.2Z"/>
  <path class="st1" d="M332.3,96.2l1.7-3h.2c1.9,1.5,3.4,1.9,4.6,1.2.9-.5.7-1.8-.3-2.2-2.4-1-5.7-1-5.6-4.9,0-5.7,5.8-6.3,9.8-4.3s.5.6.3,1l-1.3,2.2c-.1.3-.5.3-.7,0-.8-.7-2.7-1.2-3.4,0-.4.6,0,1.4.7,1.7,2.6.8,5.3,1.3,5.5,4.3.6,6.9-7.1,7.3-11.4,4.5-.1,0-.2-.3,0-.4h-.1Z"/>
  <path class="st1" d="M368.2,92.5h-2c-.2,0-.4-.2-.4-.4v-2.6c0-.2.2-.4.4-.4h7.1c.3,0,.5.2.5.5,0,4.8-2,7.7-6.2,8.7-2.6.6-6.6-.4-8.3-2.7-1.4-2-2-4.1-1.8-6.1.7-5.5,4-8,9.9-7.5,2.4.2,4.2,1.6,5.4,4.1,0,.2,0,.4-.2.5l-3.4,1.3c-.2,0-.4,0-.5-.2l-.3-.6c-.1-.2-.3-.4-.5-.6-2.3-1.8-4.9-.6-5.8,2-.6,1.8-.4,3.6.8,5.3.1.2.3.4.5.5,1.6,1.3,3.3,1.1,5-.4.5-.4.2-1.2-.5-1.2l.3-.2Z"/>
  <path class="st1" d="M412.4,89.9c.1,4.6-3.6,8.5-8.4,8.6s-8.8-3.5-8.9-8.1,3.6-8.5,8.4-8.6,8.8,3.5,8.9,8.1ZM407.9,90.1c0-2.3-1.9-4.2-4.2-4.2s-4.2,1.9-4.2,4.2,1.9,4.2,4.2,4.2,4.2-1.9,4.2-4.2Z"/>
  <path class="st1" d="M81.6,91.2c-.9-1.2-1.4-1.8-1.6-2.1,0-.2-.4,0-.4.2v8.3c0,.2,0,.3-.3.3h-3.5c-.2,0-.3,0-.3-.3v-14.9c0-.2.2-.4.4-.4h3.2c.3,0,.5,0,.7.3,1.5,1.8,3.2,4,5,6.3.9,1.2,1.4,1.8,1.6,2,0,.2.4,0,.4-.2v-8.3c0-.2,0-.3.3-.3h3.5c.2,0,.3,0,.3.3v14.9c0,.2-.2.4-.4.4h-3.2c-.3,0-.5,0-.7-.3-1.5-1.8-3.2-4-5-6.3h0Z"/>
  <path class="st1" d="M103.5,82.3h1.9c.3,0,.5.2.6.4l5.6,14.8c0,.2,0,.4-.3.4h-3.6c-.3,0-.6-.2-.7-.5l-.7-1.9c0-.3-.4-.4-.6-.4h-4.4c-.3,0-.5.2-.6.4l-.7,1.9c0,.3-.4.5-.7.5h-3.6c-.2,0-.4-.2-.3-.4l5.7-14.8c0-.2.3-.4.6-.4h1.8,0ZM103.5,92h1.1c.2,0,.3-.2.3-.4-.7-2.4-1.2-3.6-1.3-3.6s-.6,1.2-1.3,3.6c0,.2,0,.4.3.4h1.1-.2Z"/>
  <path class="st1" d="M118.9,82.3h5.1c.2,0,.3,0,.3.3v2.9c0,.2,0,.3-.3.3h-2.6c-.2,0-.4.2-.4.4v11.2c0,.2-.2.4-.4.5h-3.2c-.2,0-.4-.2-.4-.5v-11.2c0-.2-.2-.4-.4-.4h-2.6c-.2,0-.3,0-.3-.3v-2.9c0-.2,0-.3.3-.3h5.1-.2Z"/>
  <rect class="st1" x="128.6" y="82.3" width="4.1" height="15.6" rx=".3" ry=".3"/>
  <path class="st1" d="M166.2,91.2c-.9-1.2-1.4-1.8-1.6-2.1-.1-.2-.4,0-.4.2v8.3c0,.2-.1.3-.3.3h-3.5c-.2,0-.3,0-.3-.3v-14.9c0-.2.2-.4.4-.4h3.2c.3,0,.5,0,.7.3,1.5,1.8,3.2,4,5,6.3.9,1.2,1.4,1.8,1.6,2.1.1.2.4,0,.4-.2v-8.3c0-.2.1-.3.3-.3h3.5c.2,0,.3,0,.3.3v14.9c0,.2-.2.4-.4.4h-3.2c-.3,0-.5,0-.7-.3-1.5-1.8-3.2-4-5-6.3Z"/>
  <path class="st1" d="M188.1,95.1h-2.2c-.3,0-.5.2-.6.4l-.7,1.9c-.1.3-.4.5-.7.5h-3.6c-.2,0-.4-.2-.3-.4l5.7-14.8c0-.2.3-.4.6-.4h3.7c.3,0,.5.2.6.4l5.6,14.8c0,.2,0,.4-.3.4h-3.6c-.3,0-.6-.2-.7-.5l-.7-1.9c-.1-.3-.4-.4-.6-.4h-2.2ZM188.1,92h1.1c.2,0,.3-.2.3-.4-.7-2.4-1.2-3.5-1.3-3.5-.2,0-.6,1.2-1.3,3.5,0,.2,0,.4.3.4h1.1-.2Z"/>
  <path class="st1" d="M204.7,82.6v11.5c0,.2.1.3.3.3h4.3c.2,0,.3,0,.3.3v3c0,.2-.1.3-.3.3h-8.4c-.2,0-.3,0-.3-.3v-15.1c0-.2.1-.3.3-.3h3.5c.2,0,.3,0,.3.3h0Z"/>
  <path class="st1" d="M234.7,89.6c1.3.8,2.1,1.5,2.2,2.1,1.6,7.5-6.4,6.4-11.3,6.2-.2,0-.4-.2-.4-.4v-14.7c0-.2.2-.5.4-.5h6.1c3.1,0,4.4,1.9,3.9,5.3,0,.5-.4,1-.9,1.4-.2,0-.1.4,0,.5h0ZM229.5,85.7v2.4c0,0,.1.3.3.3h.1c1.1,0,1.9-.6,1.9-1.4v-.2c0-.8-.9-1.4-1.9-1.4h-.1c-.1,0-.3,0-.3.3ZM229.4,91.9v2.4c0,.2.2.3.3.3h1.2c1,0,1.8-.7,1.8-1.5h0c0-.9-.8-1.6-1.8-1.5h-1.2c-.2,0-.3,0-.3.3Z"/>
  <path class="st1" d="M247,92.7c0,0-.3,0-.3,0v4.7c0,.2-.1.4-.4.4h-3.4c-.2,0-.4-.2-.4-.4v-14.8c0-.3.1-.5.4-.5,4.6,0,9.6-1,10.9,3.3.6,2,0,4.6-2,5.5-.3,0-.5.2-.6.3-.2.2-.2.4,0,.6l4.4,5.7h0c0,0-5.1,0-5.1,0h-.2l-3.3-5.1h0ZM246.8,86v2.8c0,.2.2.4.4.4h.5c1,0,1.8-.7,1.8-1.7v-.2c0-.9-.8-1.7-1.8-1.7h-.5c-.2,0-.4.2-.4.4h0Z"/>
  <path class="st1" d="M285.9,97.9h-3.8c-.1,0-.2,0-.2-.2v-15.2c0,0,0-.2.2-.2h3.9c.1,0,.2,0,.2.2v5c0,.2.3.3.4,0l4.4-5.2h4.7c.2,0,.3.2.2.4l-5.8,6.9v.3l6.4,7.7c.1,0,0,.4-.2.4h-5l-4.7-5.7c-.1-.2-.4,0-.4,0v5.4c0,0,0,.2-.2.2v-.2Z"/>
  <path class="st1" d="M309.8,90.1v1.3c0,.3-.2.5-.5.5h-3.7c-.2,0-.3.2-.3.3v1.8c0,.2.1.3.3.3h4.3c.1,0,.2,0,.2.2v3.1c0,0-.1.3-.3.3h-8.2c-.3,0-.5-.2-.5-.5v-14.6c0-.3.2-.5.5-.5h8.2c.1,0,.3,0,.3.3v3.1c0,0,0,.2-.2.2h-4.3c-.2,0-.3,0-.3.3v1.8c0,.2.1.3.3.3h3.7c.3,0,.5.2.5.5v1.3h0Z"/>
  <path class="st1" d="M319.7,92.8v4.7c0,.2-.2.4-.4.4h-3.4c-.2,0-.4-.2-.4-.4v-14.7c0-.3.2-.5.5-.5,4.6,0,9.6-1,10.8,3.4.6,2,0,4.6-2,5.4-.3,0-.5.2-.6.3-.2.2-.2.4,0,.6l4.4,5.7h0c0,0-5.1,0-5.1,0h-.2l-3.3-5.1c0,0-.3,0-.3,0h0ZM319.7,86v2.8c0,.2.2.4.4.4h.7c1,0,1.8-.7,1.8-1.7v-.2c0-.9-.8-1.7-1.8-1.7h-.7c-.2,0-.4.2-.4.4h0Z"/>
  <path class="st1" d="M383.4,92.7c0,0-.3,0-.3,0v4.7c0,.2-.2.4-.4.4h-3.4c-.2,0-.4-.2-.4-.4v-14.7c0-.3.2-.5.5-.5,4.6,0,9.6-1,10.8,3.4.6,2,0,4.6-2,5.5-.3,0-.5.2-.6.3-.2.2-.2.4,0,.6l4.4,5.7h0c0,0-5.1,0-5.1,0h-.2l-3.3-5.1ZM383,86v2.8c0,.2.2.4.4.4h.6c1,0,1.8-.8,1.8-1.7v-.2c0-.9-.8-1.7-1.8-1.7h-.6c-.2,0-.4.2-.4.4h0Z"/>
  <path class="st1" d="M424,94.6c1.8,0,2.7-1.3,2.7-4.1v-7.9c0,0,.1-.3.3-.3h3.6c.1,0,.3,0,.3.3,0,5.7,0,9.1-.1,10.2-.4,3.7-3.3,5.6-6.7,5.6s-6.3-1.9-6.7-5.6c0-1.1-.1-4.5,0-10.2,0,0,.1-.3.3-.3h3.6c.1,0,.3,0,.3.3v7.9c0,2.7.8,4.1,2.6,4.1h-.2Z"/>
  <path class="st1" d="M440.8,93.2v4.6c0,0,0,.2-.2.2h-3.9c-.1,0-.2,0-.2-.2v-15c0-.3.2-.5.5-.4,4.2,0,11.4-1.5,11.5,5.2,0,2.8-1.2,4.5-3.7,5.2h-3.5c-.2,0-.4.2-.4.5h0ZM440.8,85.9v3.2c0,0,0,.2.2.2h1.1c1.1,0,2-.7,2-1.6v-.4c0-.9-.9-1.7-1.9-1.7h-1.1c-.1,0-.2,0-.2.2h-.1Z"/>
  <rect class="st0" x="75.5" y="100.4" width="40.3" height="91.7" rx=".3" ry=".3"/>
  <path class="st0" d="M198.9,100.6v91.2c0,.1-.1.3-.3.3h-12.6s-.2,0-.2-.1l-58.6-91.2c0-.2,0-.4.2-.4h41.4s.2,0,.2,0l16.3,25.3c.1.2.5,0,.5,0v-25c0,0,.1-.3.3-.3h12.5c.1,0,.3,0,.3.3h0Z"/>
  <path class="st0" d="M200.5,192.1c-.1,0-.3-.1-.3-.3v-91c0-.3.2-.5.5-.5h79.8c.1,0,.2,0,.2.2,0,4.6.1,9.6.6,15.1.8,9.4,3.5,17.7,6.7,26,5.1,13,13.6,23,23.1,33,.2.2.2.5,0,.6-8.4,9-18.4,13.7-30.5,15.8-4,.7-10.3,1-18.9,1h-61.2ZM239.9,160.9c9.8.1,21.3.8,31-3,5.7-2.2,9.1-6.1,10.4-11.7,2.1-9.5-.6-19.8-10.2-23.2-2.9-1-5.8-1.7-8.7-1.9-6.7-.6-14.2-.7-22.3-.5-.2,0-.4.2-.4.4v39.7c0,.1,0,.2.2.2h0Z"/>
  <path class="st0" d="M367.4,124.2v-23.4c0-.3.2-.5.5-.5h80.4c.1,0,.3,0,.3.3v26.7c0,2.8-.3,5.4-.9,7.9-4.7,18.4-14.6,34.3-30.3,44.8-17.2,11.5-37.2,16.3-57.9,14.6-33.9-2.8-61.3-27.7-72.4-59.3-2.4-6.9-3.9-14.1-4.3-21.7-.3-4.9-.5-9.2-.5-13s.1-.4.3-.4h42.1c.3,0,.5.2.5.5-.3,16.6,4.4,32.8,15.9,44.7,11.2,11.6,26.6,15.5,41.8,10.8,12-3.7,19.9-11.2,23.7-22.5.9-2.6,1.2-5.2,1.1-7.8,0-.7-.6-1.3-1.3-1.3h-38.4c-.3,0-.5-.2-.5-.5h-.1Z"/>
</svg>